<?xml version="1.0" encoding="UTF-8"?>
<svg xmlns="http://www.w3.org/2000/svg" xmlns:xlink="http://www.w3.org/1999/xlink" width="62pt" height="16pt" viewBox="0 0 62 16" version="1.1">
<g id="surface1">
<path style=" stroke:none;fill-rule:nonzero;fill:rgb(42.745098%,70.196078%,24.705882%);fill-opacity:1;" d="M 14.574219 0.9375 C 14.359375 1.464844 14.066406 1.976562 13.722656 2.4375 C 10.675781 -0.742188 5.644531 -0.824219 2.496094 2.242188 C -0.648438 5.304688 -0.746094 10.363281 2.300781 13.527344 C 2.398438 13.644531 2.515625 13.742188 2.628906 13.839844 L 2.925781 14.105469 C 6.265625 16.9375 11.28125 16.511719 14.097656 13.148438 C 15.179688 11.863281 15.835938 10.25 15.949219 8.570312 C 16.179688 6.574219 15.574219 4.003906 14.574219 0.9375 Z M 3.777344 13.921875 C 3.546875 14.21875 3.121094 14.253906 2.824219 14.023438 C 2.53125 13.792969 2.496094 13.363281 2.726562 13.066406 C 2.957031 12.769531 3.382812 12.738281 3.675781 12.96875 C 3.957031 13.199219 4.003906 13.628906 3.777344 13.921875 Z M 14.523438 11.535156 C 12.574219 14.15625 8.378906 13.265625 5.710938 13.398438 C 5.710938 13.398438 5.234375 13.429688 4.757812 13.496094 C 4.757812 13.496094 4.9375 13.414062 5.167969 13.332031 C 7.054688 12.671875 7.9375 12.539062 9.085938 11.945312 C 11.230469 10.84375 13.378906 8.421875 13.804688 5.914062 C 12.984375 8.320312 10.492188 10.398438 8.234375 11.238281 C 6.675781 11.816406 3.875 12.375 3.875 12.375 L 3.757812 12.308594 C 1.859375 11.371094 1.792969 7.21875 5.265625 5.882812 C 6.789062 5.289062 8.234375 5.617188 9.886719 5.222656 C 11.640625 4.8125 13.671875 3.492188 14.492188 1.761719 C 15.410156 4.546875 16.523438 8.863281 14.523438 11.535156 Z M 14.523438 11.535156 "/>
<path style=" stroke:none;fill-rule:nonzero;fill:rgb(42.745098%,70.196078%,24.705882%);fill-opacity:1;" d="M 20.457031 11.140625 C 20.242188 11.007812 20.113281 10.777344 20.128906 10.53125 C 20.128906 10.132812 20.441406 9.804688 20.832031 9.804688 C 20.832031 9.804688 20.832031 9.804688 20.847656 9.804688 C 20.980469 9.804688 21.113281 9.835938 21.226562 9.902344 C 21.882812 10.363281 22.652344 10.613281 23.4375 10.644531 C 24.191406 10.644531 24.632812 10.316406 24.632812 9.804688 L 24.632812 9.769531 C 24.632812 9.160156 23.816406 8.964844 22.914062 8.683594 C 21.785156 8.355469 20.503906 7.894531 20.503906 6.410156 L 20.503906 6.375 C 20.503906 4.910156 21.71875 4.019531 23.242188 4.019531 C 24.09375 4.035156 24.914062 4.25 25.667969 4.648438 C 25.929688 4.777344 26.09375 5.027344 26.09375 5.324219 C 26.09375 5.71875 25.765625 6.046875 25.371094 6.046875 L 25.355469 6.046875 C 25.242188 6.046875 25.125 6.015625 25.011719 5.964844 C 24.453125 5.652344 23.847656 5.46875 23.207031 5.4375 C 22.519531 5.4375 22.128906 5.765625 22.128906 6.195312 L 22.128906 6.230469 C 22.128906 6.804688 22.964844 7.035156 23.863281 7.332031 C 24.996094 7.679688 26.257812 8.207031 26.257812 9.589844 L 26.257812 9.625 C 26.257812 11.253906 24.996094 12.0625 23.40625 12.0625 C 22.355469 12.046875 21.324219 11.730469 20.457031 11.140625 Z M 20.457031 11.140625 "/>
<path style=" stroke:none;fill-rule:nonzero;fill:rgb(42.745098%,70.196078%,24.705882%);fill-opacity:1;" d="M 26.910156 4.925781 C 26.894531 4.449219 27.289062 4.054688 27.765625 4.035156 L 27.78125 4.035156 C 28.273438 4.035156 28.664062 4.433594 28.664062 4.925781 L 28.664062 5.453125 C 29.238281 4.648438 30.042969 4.003906 31.285156 4.003906 C 33.089844 4.003906 34.859375 5.4375 34.859375 8.023438 L 34.859375 8.058594 C 34.859375 10.628906 33.105469 12.078125 31.285156 12.078125 C 30.007812 12.078125 29.207031 11.4375 28.664062 10.710938 L 28.664062 13.445312 C 28.664062 13.941406 28.273438 14.335938 27.78125 14.335938 C 27.304688 14.335938 26.910156 13.941406 26.910156 13.460938 Z M 33.089844 8.058594 L 33.089844 8.023438 C 33.089844 6.523438 32.089844 5.554688 30.894531 5.554688 C 29.699219 5.554688 28.648438 6.558594 28.648438 8.023438 L 28.648438 8.058594 C 28.648438 9.539062 29.699219 10.53125 30.894531 10.53125 C 32.089844 10.53125 33.089844 9.589844 33.089844 8.058594 Z M 33.089844 8.058594 "/>
<path style=" stroke:none;fill-rule:nonzero;fill:rgb(42.745098%,70.196078%,24.705882%);fill-opacity:1;" d="M 35.546875 4.925781 C 35.53125 4.449219 35.921875 4.054688 36.398438 4.035156 L 36.414062 4.035156 C 36.90625 4.035156 37.300781 4.433594 37.300781 4.925781 L 37.300781 5.355469 C 37.382812 4.695312 38.464844 4.035156 39.234375 4.035156 C 39.675781 4.003906 40.070312 4.332031 40.101562 4.777344 C 40.101562 4.828125 40.101562 4.859375 40.101562 4.910156 C 40.101562 5.339844 39.808594 5.703125 39.398438 5.765625 C 38.136719 5.980469 37.285156 7.085938 37.285156 8.617188 L 37.285156 11.171875 C 37.285156 11.667969 36.890625 12.046875 36.398438 12.046875 C 35.921875 12.046875 35.53125 11.667969 35.53125 11.1875 C 35.53125 11.1875 35.53125 11.1875 35.53125 11.171875 Z M 35.546875 4.925781 "/>
<path style=" stroke:none;fill-rule:nonzero;fill:rgb(42.745098%,70.196078%,24.705882%);fill-opacity:1;" d="M 40.804688 4.941406 C 40.789062 4.464844 41.183594 4.070312 41.660156 4.054688 L 41.675781 4.054688 C 42.167969 4.054688 42.558594 4.449219 42.558594 4.941406 L 42.558594 11.1875 C 42.558594 11.683594 42.167969 12.0625 41.675781 12.0625 C 41.183594 12.0625 40.804688 11.667969 40.804688 11.1875 Z M 40.804688 4.941406 "/>
<path style=" stroke:none;fill-rule:nonzero;fill:rgb(42.745098%,70.196078%,24.705882%);fill-opacity:1;" d="M 43.460938 4.941406 C 43.445312 4.464844 43.835938 4.070312 44.3125 4.054688 L 44.328125 4.054688 C 44.820312 4.054688 45.214844 4.449219 45.214844 4.941406 L 45.214844 5.304688 C 45.738281 4.480469 46.65625 4.003906 47.621094 4.035156 C 49.359375 4.035156 50.359375 5.207031 50.359375 7.003906 L 50.359375 11.171875 C 50.375 11.648438 50 12.027344 49.523438 12.046875 C 49.507812 12.046875 49.507812 12.046875 49.492188 12.046875 C 49.015625 12.0625 48.621094 11.667969 48.605469 11.1875 L 48.605469 7.546875 C 48.605469 6.34375 48.015625 5.652344 46.949219 5.652344 C 45.933594 5.652344 45.214844 6.375 45.214844 7.578125 L 45.214844 11.1875 C 45.214844 11.683594 44.820312 12.078125 44.328125 12.078125 C 43.835938 12.078125 43.445312 11.683594 43.445312 11.1875 Z M 43.460938 4.941406 "/>
<path style=" stroke:none;fill-rule:nonzero;fill:rgb(42.745098%,70.196078%,24.705882%);fill-opacity:1;" d="M 58.125 4.019531 C 57.632812 4.019531 57.242188 4.417969 57.242188 4.910156 L 57.242188 5.4375 C 56.667969 4.628906 55.863281 3.988281 54.621094 3.988281 C 52.816406 3.988281 51.046875 5.421875 51.046875 8.007812 L 51.046875 8.042969 C 51.046875 10.613281 52.800781 12.0625 54.621094 12.0625 C 55.898438 12.0625 56.699219 11.417969 57.242188 10.710938 C 57.160156 12.109375 56.308594 12.835938 54.816406 12.835938 C 53.996094 12.835938 53.175781 12.636719 52.457031 12.226562 C 52.359375 12.175781 52.261719 12.160156 52.144531 12.160156 C 51.734375 12.160156 51.40625 12.472656 51.390625 12.886719 C 51.390625 13.199219 51.589844 13.496094 51.882812 13.59375 C 52.816406 14.054688 53.832031 14.285156 54.863281 14.285156 C 56.257812 14.285156 57.339844 13.957031 58.027344 13.25 C 58.667969 12.605469 59.011719 11.632812 59.011719 10.332031 L 59.011719 4.925781 C 59.027344 4.433594 58.632812 4.035156 58.140625 4.019531 C 58.140625 4.019531 58.125 4.019531 58.125 4.019531 Z M 55.027344 10.53125 C 53.816406 10.53125 52.832031 9.574219 52.832031 8.042969 L 52.832031 8.007812 C 52.832031 6.507812 53.832031 5.535156 55.027344 5.535156 C 56.226562 5.535156 57.273438 6.542969 57.273438 8.007812 L 57.273438 8.042969 C 57.289062 9.523438 56.242188 10.53125 55.027344 10.53125 Z M 55.027344 10.53125 "/>
<path style=" stroke:none;fill-rule:nonzero;fill:rgb(42.745098%,70.196078%,24.705882%);fill-opacity:1;" d="M 42.574219 1.910156 C 42.574219 2.40625 42.183594 2.800781 41.691406 2.800781 C 41.199219 2.800781 40.804688 2.40625 40.804688 1.910156 C 40.804688 1.417969 41.199219 1.023438 41.691406 1.023438 C 42.167969 1.003906 42.558594 1.402344 42.574219 1.878906 C 42.574219 1.894531 42.574219 1.894531 42.574219 1.910156 Z M 42.574219 1.910156 "/>
<path style=" stroke:none;fill-rule:nonzero;fill:rgb(42.745098%,70.196078%,24.705882%);fill-opacity:1;" d="M 61.027344 5.882812 C 60.535156 5.882812 60.125 5.46875 60.125 4.976562 C 60.125 4.480469 60.535156 4.070312 61.027344 4.070312 C 61.515625 4.070312 61.925781 4.480469 61.925781 4.976562 C 61.925781 5.46875 61.515625 5.882812 61.027344 5.882812 Z M 61.027344 4.203125 C 60.601562 4.203125 60.253906 4.546875 60.253906 4.976562 C 60.253906 5.40625 60.601562 5.75 61.027344 5.75 C 61.453125 5.75 61.796875 5.40625 61.796875 4.976562 C 61.796875 4.546875 61.46875 4.203125 61.042969 4.203125 Z M 61.273438 5.488281 L 61.007812 5.074219 L 60.828125 5.074219 L 60.828125 5.488281 L 60.683594 5.488281 L 60.683594 4.449219 L 61.109375 4.449219 C 61.289062 4.433594 61.4375 4.582031 61.453125 4.761719 C 61.453125 4.910156 61.335938 5.042969 61.191406 5.074219 L 61.46875 5.488281 Z M 61.089844 4.582031 L 60.828125 4.582031 L 60.828125 4.941406 L 61.109375 4.941406 C 61.207031 4.941406 61.289062 4.859375 61.289062 4.761719 C 61.289062 4.664062 61.207031 4.582031 61.089844 4.582031 Z M 61.089844 4.582031 "/>
<path style=" stroke:none;fill-rule:nonzero;fill:rgb(42.745098%,70.196078%,24.705882%);fill-opacity:1;" d="M 14.097656 13.148438 C 15.179688 11.863281 15.835938 10.25 15.949219 8.570312 "/>
<path style=" stroke:none;fill-rule:nonzero;fill:rgb(100%,100%,100%);fill-opacity:1;" d="M 14.523438 11.535156 C 12.574219 14.15625 8.378906 13.265625 5.710938 13.398438 C 5.710938 13.398438 5.234375 13.429688 4.757812 13.496094 C 4.757812 13.496094 4.9375 13.414062 5.167969 13.332031 C 7.054688 12.671875 7.9375 12.539062 9.085938 11.945312 C 11.230469 10.84375 13.378906 8.421875 13.804688 5.914062 C 12.984375 8.320312 10.492188 10.398438 8.234375 11.238281 C 6.675781 11.816406 3.875 12.375 3.875 12.375 L 3.757812 12.308594 C 1.859375 11.371094 1.792969 7.21875 5.265625 5.882812 C 6.789062 5.289062 8.234375 5.617188 9.886719 5.222656 C 11.640625 4.8125 13.671875 3.492188 14.492188 1.761719 C 15.410156 4.546875 16.523438 8.863281 14.523438 11.535156 Z M 14.523438 11.535156 "/>
<path style=" stroke:none;fill-rule:nonzero;fill:rgb(100%,100%,100%);fill-opacity:1;" d="M 3.777344 13.921875 C 3.546875 14.21875 3.121094 14.253906 2.824219 14.023438 C 2.53125 13.792969 2.496094 13.363281 2.726562 13.066406 C 2.957031 12.769531 3.382812 12.738281 3.675781 12.96875 C 3.957031 13.199219 4.003906 13.628906 3.777344 13.921875 Z M 3.777344 13.921875 "/>
</g>
</svg>
